<?xml version="1.0"?>
<svg width="200" height="200" xmlns="http://www.w3.org/2000/svg" xmlns:svg="http://www.w3.org/2000/svg" enable-background="new 0 0 1333 1759" version="1.1" xml:space="preserve">
 <g class="layer">
  <title>Layer 1</title>
  <path d="m145.1,92.69c-0.06,3.49 -0.14,6.98 -0.2,10.46c-0.29,18.89 -11.92,32.39 -31.17,35.66c-5.81,0.99 -11.78,1.02 -17.98,1.52c0,-9.43 0,-18.01 0,-26.78c4.8,-0.41 9.44,-0.45 13.93,-1.29c6.86,-1.28 8.33,-3.36 8.37,-10.13c0.01,-2.82 -0.02,-5.65 -0.04,-9.4c-0.05,-9.55 -0.09,-18.18 -0.14,-26.82c0.06,-1.82 0.21,-3.65 0.16,-5.47c-0.18,-6.51 -4.02,-10.56 -10.61,-10.7c-8.81,-0.2 -17.63,0.1 -26.43,-0.21c-1.95,-0.06 -4.45,-1.31 -5.66,-2.84c-6.1,-7.67 -11.86,-15.62 -18.04,-23.57c-0.31,-0.1 -0.25,-0.08 -0.25,-0.08c-4.65,-6.62 -9.3,-13.24 -14.6,-20.78c7.51,0 14.29,0.65 20.9,-0.15c8.99,-1.09 15.17,1.7 19.35,9.81c4.02,7.8 9.54,12.35 19.61,11.21c25.64,-2.93 44.49,16.93 42.65,42.81c0.04,9.53 0.1,18.14 0.15,26.75z" fill="#28B0C5" id="svg_5"/>
  <path d="m117.41,65.92c0.51,8.63 0.55,17.26 0.53,26.33c-5.9,0.46 -11.74,0.35 -17.56,0.52c-6.63,0.19 -10.53,4.02 -10.61,10.7c-0.15,12.99 -0.14,25.99 0,38.98c0.09,7.85 3.74,11.94 11.4,13.37c0.98,0.19 2.04,0.45 2.98,0.26c10.36,-2.05 16.35,3.37 21.79,11.4c6.62,9.76 14.32,18.77 22.3,29.07c-7.46,0 -14.06,-0.6 -20.5,0.14c-9.85,1.13 -17.29,-1.59 -22.82,-10.13c-1.34,-2.08 -4.72,-3.1 -7.38,-4c-4.85,-1.66 -10.13,-2.26 -14.76,-4.35c-12.74,-5.75 -19.31,-16.17 -19.69,-29.97c-0.43,-15.64 -0.34,-31.32 -0.05,-46.97c0.34,-18.57 16.36,-34.58 34.92,-35.26c6.33,-0.23 12.66,-0.07 19.45,-0.09z" fill="#F15F33" id="svg_7"/>
  <path d="m56.97,22.99c0,8.62 0,17.26 0,26.74c-4.64,0 -9.06,-0.04 -13.48,0c-8.38,0.08 -12.34,3.91 -12.38,12.16c-0.06,12.99 -0.08,25.98 0.01,38.97c0.06,8.39 3.98,12.22 12.23,12.27c4.48,0.02 8.95,0 13.8,0c0,9.01 0,17.58 0,26.15c-20.62,2.43 -35.79,0.43 -46.9,-16.98c-3.02,-4.72 -5.29,-10.77 -5.48,-16.29c-0.58,-17.11 -0.99,-34.35 0.42,-51.37c1.51,-18.23 17.68,-31.5 35.92,-31.7c5,-0.05 10,0 15.46,0.05c0.47,0.05 0.41,0.03 0.4,0z" fill="#AD9373" id="svg_12"/>
  <path d="m145.56,92.7c-0.51,-8.62 -0.57,-17.23 -0.54,-26.31c7.22,-0.16 14.52,-0.72 21.45,0.62c17.11,3.32 29.04,18.22 29.31,35.64c0.18,11.32 0.2,22.66 0,33.98c-0.36,20.34 -16.51,36.33 -36.73,36.53c-8.49,0.08 -16.97,0.01 -25.85,0.01c0,-8.8 0,-17.35 0,-26.61c7.37,0 14.8,0.01 22.23,0c10.13,-0.02 13.56,-3.41 13.57,-13.4c0,-9.49 0.02,-18.99 -0.01,-28.48c-0.03,-8.05 -3.82,-11.83 -11.97,-11.95c-3.66,-0.06 -7.33,-0.02 -11.46,-0.03z" fill="#F15E32" id="svg_13"/>
  <rect fill="#363334" height="0" id="svg_166" width="0" x="53" y="349.5"/>
 </g>
</svg>